<svg width="172" height="22" viewBox="0 0 172 22" fill="none" xmlns="http://www.w3.org/2000/svg">
<path d="M4.93146 0C5.01798 0 5.37641 7.54183e-07 6.0191 0.0123603C6.6618 0.0247199 7.26741 0.0247187 7.83595 0.0247187C9.3809 0.0247187 10.7899 0.210113 12.0506 0.593259C13.2989 0.976405 14.436 1.56966 15.4494 2.36067C16.4629 3.16405 17.2416 4.26404 17.7978 5.66067C18.3539 7.06966 18.6258 8.71348 18.6258 10.6045C18.6258 14.4978 17.6618 17.3652 15.7213 19.2067C13.7809 21.0607 11.173 21.9753 7.87303 21.9753H3.31236H0C0.617977 21.3326 0.926966 20.1955 0.926966 18.527V3.44832C0.926966 2.70674 0.85281 2.03933 0.704496 1.47079C0.556181 0.902248 0.395506 0.519102 0.222472 0.321349L0 0L3.31236 0.037079C3.60899 0.037079 3.85618 0.0370783 4.04157 0.0247187C4.23933 0.0123592 4.53596 0 4.93146 0ZM3.31236 0.580898V21.4315H7.87303C10.3202 21.4315 12.3101 20.4303 13.8303 18.4157C15.3629 16.4011 16.1292 13.8056 16.1292 10.6169C16.1292 7.53933 15.3753 5.09213 13.8551 3.28764C12.3348 1.48315 10.3449 0.580898 7.87303 0.580898H3.31236Z" fill="white"/>
<path d="M31.7767 0H33.9149C34.7801 0 35.5958 0.0988768 36.3498 0.28427C37.1037 0.469663 37.8205 0.778652 38.5003 1.18652C39.1801 1.60674 39.7116 2.2 40.1071 2.99101C40.5026 3.78202 40.7003 4.69663 40.7003 5.75955C40.7003 6.93371 40.5026 7.93483 40.1071 8.78764C39.7116 9.64045 39.1801 10.2831 38.5003 10.7157C37.8205 11.1483 37.1037 11.4697 36.3498 11.6551C35.5958 11.8404 34.7801 11.9393 33.9149 11.9393H32.6048C34.434 12.236 35.9666 12.9034 37.1902 13.9539C38.1048 14.7202 38.8217 15.6596 39.3408 16.7966C39.8599 17.9213 40.2801 18.9719 40.6014 19.9483C40.9228 20.9247 41.2936 21.6045 41.7138 21.9876C41.652 21.9876 41.4419 21.9876 41.0958 21.9876C40.7498 21.9876 40.5273 21.9876 40.4284 21.9876C40.3295 21.9876 40.1318 21.9753 39.8351 21.9382C39.5385 21.9011 39.3408 21.864 39.2295 21.8146C39.1183 21.7652 38.9576 21.6786 38.7351 21.5798C38.5127 21.4685 38.3396 21.3449 38.2284 21.1843C38.1172 21.0236 37.9936 20.8258 37.8576 20.5787C37.734 20.3315 37.6228 20.0596 37.5363 19.7629C37.5115 19.7011 37.4621 19.491 37.3632 19.1202C37.2644 18.7618 37.2149 18.527 37.1902 18.4404C37.1655 18.3416 37.116 18.1315 37.0172 17.7978C36.9183 17.464 36.8565 17.2416 36.8071 17.1303C36.77 17.0191 36.6958 16.8213 36.5846 16.5371C36.4733 16.2652 36.3868 16.0551 36.3003 15.9191C36.2138 15.7831 36.1026 15.5978 35.9666 15.3753C35.8306 15.1528 35.6947 14.9674 35.5711 14.8191C35.4475 14.6708 35.2992 14.5101 35.1262 14.3371C34.9531 14.164 34.7801 14.0034 34.5823 13.8551C33.6924 13.1753 32.6666 12.6933 31.5172 12.4213C30.3677 12.1494 28.9711 12.0011 27.3026 11.9764V21.9876H24.8801V3.44832C24.8801 2.70674 24.8059 2.03933 24.6576 1.47079C24.5093 0.902248 24.3486 0.519102 24.1756 0.321349L23.9531 0H27.3026H31.7767ZM27.3149 0.580898V11.3831H33.9149C35.2374 11.3831 36.3003 10.8517 37.1037 9.80112C37.9071 8.75056 38.3149 7.40337 38.3149 5.77191C38.3149 4.17753 37.9194 2.91685 37.116 1.97753C36.3127 1.0382 35.2498 0.56854 33.9149 0.56854H27.3149V0.580898Z" fill="white"/>
<path d="M64.5547 0.0367432H68.2255L75.394 12.4705L82.5626 0.0367432H83.23L75.6536 13.1997V21.9997H73.2311V13.1997C73.194 13.1131 72.7738 12.3963 72.0075 11.0491C71.2288 9.70191 70.3019 8.09517 69.239 6.22888C68.1637 4.37495 67.2985 2.86708 66.6434 1.71764C66.1367 0.914272 65.4446 0.358091 64.5547 0.0367432Z" fill="white"/>
<path d="M89.7939 0H93.3658L102.809 22H100.164C98.8905 19.0213 97.9141 16.7348 97.2344 15.1405H86.5804L83.6759 22H83.0703L91.5242 1.95281C91.1164 1.24831 90.5478 0.605618 89.7939 0ZM91.8703 2.62022L86.8276 14.5719H96.9624C96.3445 13.1506 95.4917 11.136 94.3917 8.54045C93.3164 5.9573 92.4636 3.97977 91.8703 2.62022Z" fill="white"/>
<path d="M111.125 0V21.4315H119.579C120.53 21.4315 121.507 21.1719 122.483 20.6652C123.46 20.1584 124.115 19.6764 124.461 19.2315L124.238 22H109.283H108.739V3.44832C108.739 2.79326 108.665 2.22472 108.517 1.7427C108.369 1.26067 108.208 0.964045 108.035 0.84045L107.812 0.617977L111.125 0Z" fill="white"/>
<path d="M134.424 0C134.511 0 134.869 7.54183e-07 135.512 0.0123603C136.155 0.0247199 136.76 0.0247187 137.329 0.0247187C138.874 0.0247187 140.283 0.210113 141.543 0.593259C142.792 0.976405 143.929 1.56966 144.942 2.36067C145.956 3.16405 146.734 4.26404 147.291 5.66067C147.847 7.06966 148.119 8.71348 148.119 10.6045C148.119 14.4978 147.155 17.3652 145.214 19.2067C143.274 21.0607 140.666 21.9753 137.366 21.9753H132.805H129.48C130.098 21.3326 130.407 20.1955 130.407 18.527V3.44832C130.407 2.70674 130.333 2.03933 130.185 1.47079C130.037 0.902248 129.876 0.519102 129.703 0.321349L129.48 0L132.793 0.037079C133.089 0.037079 133.337 0.0370783 133.522 0.0247187C133.72 0.0123592 134.016 0 134.424 0ZM132.793 0.580898V21.4315H137.353C139.801 21.4315 141.791 20.4303 143.311 18.4157C144.843 16.4011 145.61 13.8056 145.61 10.6169C145.61 7.53933 144.856 5.09213 143.336 3.28764C141.815 1.48315 139.825 0.580898 137.353 0.580898H132.793Z" fill="white"/>
<path d="M158.548 0H162.12L171.563 22H168.906C167.633 19.0213 166.656 16.7348 165.977 15.1405H155.323L152.418 22H151.812L160.266 1.94045C159.871 1.24831 159.29 0.605618 158.548 0ZM160.625 2.62022L155.582 14.5719H165.717C165.099 13.1506 164.246 11.136 163.146 8.54045C162.059 5.9573 161.218 3.97977 160.625 2.62022Z" fill="white"/>
<path d="M58.6569 13.8059C58.7434 15.6846 57.3592 16.4138 56.0614 16.4138C55.8266 16.4138 55.5917 16.3891 55.3569 16.3396C55.221 16.3149 55.0974 16.2778 54.9738 16.2284C54.5535 16.0801 54.1827 15.8329 53.9108 15.4745C53.6018 15.0666 53.4288 14.5228 53.4659 13.8183C53.5153 12.9531 54.2569 11.8037 54.8378 10.7778C55.5299 9.52951 56.0614 8.46659 56.0614 8.42951C56.0614 8.40479 56.5063 9.44299 57.1985 10.6789C57.767 11.7295 58.6075 12.9284 58.6569 13.8059Z" fill="white"/>
</svg>
