<svg xmlns="http://www.w3.org/2000/svg" viewBox="0 0 229 37" fill="currentColor">
  <g>
    <path d="M0.928711 0.553467H11.0377L19.6953 24.7989H20.0962L28.7526 0.553467H38.9115V35.6194H31.3045V13.1269H30.9048L22.8469 35.6194H16.9423L8.9355 13.1269H8.53459V35.6194H0.928711V0.553467Z"/>
    <path d="M104.485 8.11795C99.3815 8.11795 97.1794 10.3223 95.7279 14.3797H95.327C94.6263 10.7225 92.3253 8.11795 86.9693 8.11795C81.6133 8.11795 79.8131 10.3223 78.4616 14.3797H78.0619V8.76936H70.7047V29.9089H68.7274C67.3759 29.9089 66.8251 29.4076 66.8251 28.0559V18.4382C66.8251 10.8737 62.9716 8.01904 55.1647 8.01904C46.807 8.01904 43.0046 11.275 42.7537 17.5878H49.8098L49.8598 16.8864C50.0097 14.7821 51.3612 13.6305 54.7638 13.6305C58.1664 13.6305 59.468 14.9322 59.468 18.1392V20.0434H51.5611C45.1557 20.0434 41.752 23.1493 41.752 27.5579V28.9608C41.752 33.7196 45.2556 36.3742 50.2596 36.3742C55.5645 36.3742 57.8166 34.1698 59.3669 30.4137H59.7678C59.7678 34.4711 61.92 36.024 65.6235 36.024C67.4747 36.024 78.0596 36.0411 78.0596 36.0411V19.7433C78.0596 15.7859 79.9608 14.5331 83.2634 14.5331C86.5661 14.5331 88.2174 15.7859 88.2174 19.7433V35.6227H95.5734V19.7433C95.5734 15.7859 97.4758 14.5331 100.778 14.5331C104.081 14.5331 105.732 15.7859 105.732 19.7433V35.6227H113.088V17.589C113.088 10.7259 109.836 8.12136 104.481 8.12136L104.485 8.11795ZM59.4714 25.1001C59.4714 29.4076 57.4691 30.8105 52.665 30.8105C50.213 30.8105 48.9615 29.8078 48.9615 28.0047V27.4033C48.9615 25.5503 50.0631 24.3975 52.4152 24.3975H59.4714V25.099V25.1001Z"/>
    <path d="M178.014 8.11795C172.91 8.11795 170.708 10.3223 169.256 14.3797H168.855C168.155 10.7225 165.854 8.11795 160.498 8.11795C155.142 8.11795 153.341 10.3223 151.99 14.3797H151.59V8.76936H144.233V29.9089H142.256C140.904 29.9089 140.353 29.4076 140.353 28.0559V18.4382C140.353 10.8737 136.5 8.01904 128.693 8.01904C120.335 8.01904 116.533 11.275 116.282 17.5878H123.338L123.388 16.8864C123.538 14.7821 124.89 13.6305 128.292 13.6305C131.695 13.6305 132.996 14.9322 132.996 18.1392V20.0434H125.089C118.684 20.0434 115.28 23.1493 115.28 27.5579V28.9608C115.28 33.7196 118.784 36.3742 123.788 36.3742C129.093 36.3742 131.345 34.1698 132.895 30.4137H133.296C133.296 34.4711 135.448 36.024 139.152 36.024C141.003 36.024 151.588 36.0411 151.588 36.0411V19.7433C151.588 15.7859 153.489 14.5331 156.792 14.5331C160.094 14.5331 161.746 15.7859 161.746 19.7433V35.6227H169.102V19.7433C169.102 15.7859 171.004 14.5331 174.307 14.5331C177.609 14.5331 179.261 15.7859 179.261 19.7433V35.6227H186.617V17.589C186.617 10.7259 183.364 8.12136 178.009 8.12136L178.014 8.11795ZM132.999 25.1001C132.999 29.4076 130.996 30.8105 126.192 30.8105C123.74 30.8105 122.489 29.8078 122.489 28.0047V27.4033C122.489 25.5503 123.59 24.3975 125.942 24.3975H132.999V25.099V25.1001Z"/>
    <path d="M190.421 8.76953H197.777V35.6195H190.421V8.76953Z"/>
    <path d="M218.064 30.4092H217.663C216.112 34.1664 213.859 36.3696 208.555 36.3696C203.551 36.3696 200.047 33.714 200.047 28.9563V27.5534C200.047 23.1448 203.451 20.0389 209.856 20.0389H217.763V18.1347C217.763 14.9288 216.313 13.626 213.059 13.626C209.805 13.626 208.305 14.7776 208.154 16.8819L208.104 17.5833H201.047C201.298 11.2716 205.101 8.01453 213.459 8.01453C221.265 8.01453 225.119 10.8703 225.119 18.4337V28.0514C225.119 29.4042 225.669 29.9044 227.02 29.9044H228.071V35.6148C226.97 35.8149 225.769 36.0161 223.917 36.0161C220.215 36.0161 218.063 34.4632 218.063 30.4058L218.064 30.4092ZM210.958 30.8105C215.762 30.8105 217.763 29.4076 217.763 25.1001V24.3987H210.707C208.355 24.3987 207.254 25.5503 207.254 27.4045V28.0059C207.254 29.8089 208.505 30.8116 210.958 30.8116V30.8105Z"/>
    <path d="M199.939 0.553467C199.939 3.7821 197.325 6.39911 194.1 6.39911C190.874 6.39911 188.26 3.7821 188.26 0.553467H199.938H199.939Z"/>
  </g>
</svg>
