<svg width="96" height="96" viewBox="0 0 96 96" fill="none" xmlns="http://www.w3.org/2000/svg">
<path d="M39.151 14.9497C40.0513 15.4354 41.0464 15.6131 42.1244 15.4235C43.2261 15.2222 43.9131 14.6417 43.771 13.8836C43.6762 13.3623 43.2142 13.1017 42.3968 13.1254L40.4659 13.1965C39.4116 13.232 38.7601 12.8885 38.6061 12.0237C38.4047 10.9221 39.305 10.1284 40.8213 9.85593C41.8875 9.66639 42.693 9.74931 43.2734 10.0455L43.5696 10.9221C42.8588 10.4838 42.0178 10.3061 40.9872 10.4956C39.9684 10.6851 39.2221 11.1353 39.3406 11.8342C39.4353 12.3199 39.7552 12.5094 40.4778 12.4857L42.4205 12.4147C43.617 12.3791 44.3396 12.8056 44.5054 13.694C44.7305 14.926 43.7473 15.8026 42.2547 16.0751C41.153 16.2765 40.1224 16.1343 39.459 15.8263L39.151 14.9497Z" fill="#2D2C2A"/>
<path d="M47.9766 15.3644L48.4623 9.26367L49.2322 9.3229L49.0072 12.1304L52.8097 9.60721L53.8759 9.69013L49.9075 12.2962L53.4968 15.8145L52.4307 15.7316L49.0072 12.3318L48.7584 15.4473L47.9766 15.3644Z" fill="#2D2C2A"/>
<path d="M56.4688 16.5845L58.139 10.697L58.8616 10.8984L57.1914 16.7859L56.4688 16.5845Z" fill="#2D2C2A"/>
<path d="M60.5859 17.8638L63.4645 12.4502L64.1871 12.8293L65.585 19.4038L68.0015 14.8549L68.6531 15.1985L65.7745 20.6239L65.0993 20.2686L63.6659 13.6466L61.2375 18.2192L60.5859 17.8638Z" fill="#2D2C2A"/>
<path d="M74.926 24.5093C74.4877 23.7037 74.6417 23.0759 75.1985 22.6376C76.0159 21.9861 77.0702 22.3651 78.0652 23.609C78.6338 24.3316 78.9774 25.0542 79.0484 25.6465L78.5035 26.2151C78.4325 25.4806 78.1126 24.7225 77.5795 24.0354C76.928 23.2181 76.2054 22.7916 75.6368 23.2418C75.1748 23.609 75.1393 24.296 75.696 24.995L78.314 28.2763L77.8283 28.6672L77.1057 27.7551L74.8431 29.5675L72.9833 27.2339C71.9645 25.9545 71.929 24.8528 72.7938 24.1657C73.4334 23.6445 74.2982 23.7748 74.926 24.5093ZM73.4927 26.9022L74.8668 28.6198L76.6674 27.1865L75.2103 25.3503C74.5351 24.4974 73.8481 24.296 73.2794 24.7462C72.6635 25.2319 72.7701 26.0019 73.4927 26.9022Z" fill="#2D2C2A"/>
<path d="M85.443 38.0612C85.6917 38.9733 85.6681 39.696 85.3956 40.2646L84.4835 40.6555C84.9218 39.9684 85.0521 39.1866 84.8033 38.31C84.3532 36.6989 82.9435 36.1185 81.6878 36.462C80.4321 36.8174 79.5318 38.0494 79.9701 39.6486C80.2189 40.5489 80.752 41.2122 81.4864 41.5795L80.5032 41.7098C79.9938 41.3544 79.5437 40.6555 79.2831 39.7552C78.7145 37.7295 79.828 36.1777 81.4746 35.7157C83.1212 35.2774 84.8744 36.0355 85.443 38.0612Z" fill="#2D2C2A"/>
<path d="M83.5861 44.8844C85.2564 44.9081 86.7609 46.0808 86.7253 48.1539C86.6898 50.2269 85.1617 51.3523 83.4914 51.3286C81.8211 51.3049 80.3166 50.1322 80.3522 48.0591C80.3877 45.9861 81.9159 44.8607 83.5861 44.8844ZM83.5032 50.5705C84.83 50.5942 86.0264 49.7294 86.0501 48.142C86.0738 46.5665 84.901 45.6662 83.5743 45.6544C82.2475 45.6425 81.0511 46.4955 81.0274 48.071C81.0037 49.6583 82.1765 50.5586 83.5032 50.5705Z" fill="#2D2C2A"/>
<path d="M81.461 54.6338C80.6317 55.2261 80.0276 56.0554 79.7314 57.0978C79.4235 58.1758 79.6485 59.0524 80.3948 59.2538C80.9042 59.3959 81.3425 59.0879 81.6742 58.3535L82.456 56.5884C82.8825 55.6289 83.4748 55.1906 84.3277 55.4275C85.4057 55.7355 85.7255 56.8846 85.3109 58.3653C85.0148 59.4078 84.5765 60.0949 84.0552 60.4858L83.1431 60.3673C83.8539 59.9172 84.3751 59.2419 84.6594 58.2232C84.9437 57.2281 84.8608 56.3515 84.1737 56.162C83.688 56.0317 83.38 56.2449 83.0839 56.8964L82.2902 58.6733C81.8045 59.7632 81.0937 60.237 80.229 59.9882C79.0207 59.6447 78.6653 58.389 79.0799 56.9201C79.3879 55.8421 79.9684 54.9774 80.5251 54.5154L81.461 54.6338Z" fill="#2D2C2A"/>
<path d="M79.2995 70.7679L78.7901 71.5735L73.6016 68.304L73.9925 67.688L78.3755 70.4599L75.4258 65.4136L75.4969 65.2951L81.3252 65.7808L76.9421 63.0088L77.3331 62.3928L82.5216 65.6623L82.0004 66.4915L76.5275 66.0414L79.2995 70.7679Z" fill="#2D2C2A"/>
<path d="M71.2159 70.8511L75.2672 75.4473L71.5949 78.6813L71.1448 78.1719L74.2484 75.4355L72.9572 73.9666L69.8654 76.6912L69.4153 76.1818L72.5071 73.4572L71.0856 71.8461L67.9345 74.6181L67.4844 74.1087L71.2159 70.8511Z" fill="#2D2C2A"/>
<path d="M63.058 76.8333L65.5457 81.6901L67.6661 80.6003L67.9741 81.2044L63.058 83.7276L62.75 83.1235L64.8705 82.0336L62.3828 77.1768L63.058 76.8333Z" fill="#2D2C2A"/>
<path d="M57.2382 79.2024L58.9204 85.0898L58.1978 85.2912L56.5156 79.4038L57.2382 79.2024Z" fill="#2D2C2A"/>
<path d="M50.5134 86.7245C49.5657 86.7956 48.8668 86.6298 48.3574 86.2507L48.1442 85.2793C48.7365 85.8361 49.4709 86.1085 50.3831 86.0374C52.0534 85.9071 52.8944 84.6396 52.7878 83.3366C52.6812 82.0335 51.6506 80.92 49.9922 81.0503C49.0563 81.1214 48.31 81.5123 47.8125 82.1757L47.8717 81.1924C48.3219 80.766 49.08 80.4461 50.0159 80.3751C52.1126 80.2092 53.4157 81.5952 53.5578 83.2892C53.6763 84.9832 52.6101 86.5587 50.5134 86.7245Z" fill="#2D2C2A"/>
<path d="M44.4076 82.0216C43.7324 81.2516 42.8676 80.7304 41.8015 80.529C40.6998 80.3277 39.8587 80.6238 39.7166 81.382C39.6218 81.9032 39.9653 82.3059 40.7353 82.5784L42.5596 83.1944C43.5547 83.5261 44.0404 84.0828 43.8864 84.9476C43.685 86.0493 42.5715 86.4757 41.0552 86.2033C39.989 86.0137 39.2664 85.6347 38.8281 85.1608L38.8637 84.2368C39.373 84.9002 40.0956 85.3622 41.1381 85.5517C42.1569 85.7413 43.0216 85.5754 43.1519 84.8765C43.2467 84.3908 42.9979 84.0947 42.3227 83.8578L40.4747 83.2418C39.3493 82.8627 38.8163 82.1993 38.9703 81.3109C39.1953 80.0789 40.4155 79.605 41.9199 79.8775C43.0216 80.0789 43.9338 80.5764 44.4431 81.0977L44.4076 82.0216Z" fill="#2D2C2A"/>
<path d="M28.3199 74.1561L24.2212 78.7168L22.2903 76.9754C20.6674 75.5183 20.5608 73.8007 21.8046 72.4147C23.0484 71.0287 24.7661 70.9576 26.389 72.4147L28.3199 74.1561ZM26.8984 74.1561L25.8323 73.1965C24.624 72.1067 23.4394 72.1778 22.5865 73.1255C21.7335 74.0731 21.7928 75.2577 23.0011 76.3476L24.0672 77.3071L26.8984 74.1561Z" fill="#2D2C2A"/>
<path d="M18.752 62.8076L19.5812 64.1107L19.0837 68.3515L21.3581 66.9063L21.9267 67.7948L16.75 71.0761L14.8428 68.0791C14.0847 66.8945 14.2742 65.8047 15.2219 65.2124C16.134 64.6319 17.212 64.9162 17.9465 66.0771L18.3137 66.6576L18.752 62.8076ZM15.6957 67.6882L16.9632 69.6901L18.6217 68.6359L17.3542 66.6339C16.9395 65.9823 16.3473 65.7336 15.826 66.0653C15.3048 66.397 15.2693 67.0248 15.6957 67.6882Z" fill="#2D2C2A"/>
<path d="M10.3786 57.8439L10.1654 56.6356L12.4991 54.3731L9.52573 53.0463L9.3125 51.8499L13.3757 53.6741L15.7923 53.2358L15.9818 54.2664L13.5652 54.7047L10.3786 57.8439Z" fill="#2D2C2A"/>
<path d="M15.232 49.5283L9.27344 46.3891L9.34451 45.1571L15.6229 42.7168L15.5518 43.9014L14.2251 44.3752L14.0355 47.7514L15.3031 48.3792L15.232 49.5283ZM13.0878 47.2894L13.23 44.7425L10.1737 45.8441L13.0878 47.2894Z" fill="#2D2C2A"/>
<path d="M16.3126 39.9329L10.4844 38.0257L10.8161 37.0307L15.744 38.6417L16.8457 35.2656L17.746 35.5618L16.3126 39.9329Z" fill="#2D2C2A"/>
<path d="M19.0396 32.7067L13.8984 29.3661L15.3081 27.1865C16.4927 25.3622 18.1748 24.9831 19.7385 26.0019C21.2903 27.0088 21.6457 28.7027 20.4493 30.527L19.0396 32.7067ZM18.8264 31.3089L19.6082 30.1006C20.4848 28.7383 20.2479 27.5774 19.1699 26.8785C18.0919 26.1795 16.931 26.4283 16.0544 27.7906L15.2726 28.9989L18.8264 31.3089Z" fill="#2D2C2A"/>
<path d="M23.6038 26.0967L21.5781 19.6761L22.4903 18.8469L28.6739 21.536L27.7973 22.3296L26.5179 21.7373L24.0066 23.9999L24.4685 25.3385L23.6038 26.0967ZM23.663 22.993L25.5584 21.2872L22.6087 19.9249L23.663 22.993Z" fill="#2D2C2A"/>
<path d="M53.6765 51.08C53.866 55.238 50.7979 56.8609 47.9312 56.8609C47.41 56.8609 46.8887 56.8135 46.3675 56.695C46.0714 56.6358 45.7871 56.5529 45.5146 56.4463C44.5906 56.1146 43.7614 55.5697 43.1454 54.7641C42.4702 53.8757 42.0674 52.6674 42.1622 51.0919C42.2688 49.1847 43.9272 46.6378 45.1948 44.3515C46.7229 41.5914 47.8956 39.2222 47.8956 39.1511C47.8956 39.1037 48.8789 41.39 50.407 44.1383C51.7101 46.4719 53.5936 49.1136 53.6765 51.08Z" fill="#2D2C2A"/>
<path d="M32.1125 17.224C32.6752 17.224 33.1313 16.7679 33.1313 16.2053C33.1313 15.6426 32.6752 15.1865 32.1125 15.1865C31.5499 15.1865 31.0938 15.6426 31.0938 16.2053C31.0938 16.7679 31.5499 17.224 32.1125 17.224Z" fill="#2D2C2A"/>
<path d="M32.1125 81.0622C32.6752 81.0622 33.1313 80.6061 33.1313 80.0434C33.1313 79.4808 32.6752 79.0247 32.1125 79.0247C31.5499 79.0247 31.0938 79.4808 31.0938 80.0434C31.0938 80.6061 31.5499 81.0622 32.1125 81.0622Z" fill="#2D2C2A"/>
<path d="M48 96C21.536 96 0 74.464 0 48C0 21.536 21.536 0 48 0C74.464 0 96 21.536 96 48C96 74.464 74.464 96 48 96ZM48 1.04245C22.1046 1.04245 1.04245 22.1046 1.04245 48C1.04245 73.8954 22.1046 94.9576 48 94.9576C73.8954 94.9576 94.9576 73.8954 94.9576 48C94.9576 22.1046 73.8954 1.04245 48 1.04245Z" fill="#2D2C2A"/>
</svg>
