<svg xmlns="http://www.w3.org/2000/svg" viewBox="0 0 873.28 174" fill="currentColor">
<path d="M291.99,114.1V8.4h36.29c7.5,0,13.79,1.21,18.86,3.64s8.9,5.72,11.49,9.89s3.88,8.83,3.88,14c0,3.69-0.66,6.91-1.98,9.65s-2.93,5.01-4.83,6.8c-1.9,1.79-3.78,3.16-5.63,4.11s-3.3,1.42-4.36,1.42c1.9,0.21,4.12,0.79,6.66,1.75c2.54,0.95,4.96,2.43,7.29,4.44c2.32,2.01,4.25,4.63,5.78,7.85c1.53,3.23,2.3,7.17,2.3,11.82c0,7.51-1.72,13.49-5.15,17.93s-8.14,7.62-14.1,9.52c-5.97,1.9-12.7,2.85-20.21,2.85h-36.29V114.1z M311.17,50.56h16.16c4.01,0,7.69-0.95,11.01-2.85c3.33-1.9,4.99-5.23,4.99-9.98c0-3.27-0.82-5.78-2.46-7.53c-1.64-1.74-3.67-2.98-6.1-3.72s-4.91-1.11-7.45-1.11h-16.16v25.19H311.17z M311.17,97.15h16.96c1.9,0,3.99-0.13,6.26-0.4c2.27-0.26,4.44-0.87,6.5-1.82s3.75-2.43,5.07-4.44s1.98-4.7,1.98-8.08c0-4.22-1.08-7.42-3.25-9.59c-2.17-2.16-4.78-3.64-7.84-4.44c-3.07-0.79-5.97-1.19-8.72-1.19h-16.96L311.17,97.15L311.17,97.15z"></path>
<path d="M384.65,114.1V8.4h68.46v17.59h-48.49v24.88h35.66v17.75h-35.66V96.2h52.14v17.91h-72.11V114.1z"></path>
<path d="M468.2,114.1L508.29,8.4h20.6l40.09,105.7H546.8l-9.19-26.78h-39.3l-9.19,26.78H468.2z M503.85,70.84h28.05L517.96,29.8L503.85,70.84z"></path>
<path d="M577.75,75.12V8.4h19.97v63.23c0,8.03,1.69,14.4,5.07,19.1s9.4,7.05,18.07,7.05c8.77,0,14.82-2.35,18.14-7.05c3.33-4.7,4.99-11.07,4.99-19.1V8.4h19.97v66.72c0,7.82-1.69,14.9-5.07,21.23c-3.38,6.34-8.27,11.36-14.66,15.05c-6.39,3.7-14.18,5.55-23.37,5.55s-16.98-1.85-23.37-5.55c-6.39-3.7-11.28-8.72-14.66-15.05C579.44,90.01,577.75,82.94,577.75,75.12z"></path>
<path d="M713.92,114.1V25.99h-35.81V8.4h91.6v17.59H733.9v88.11H713.92z"></path>
<path d="M816.39,114.1V67.67L779.78,8.4h21.87l25.36,42.15L852.36,8.4h20.92l-36.61,59.27v46.43H816.39z"></path>
<path d="M157.79,174c-5.57-7.07-9.61-13.29-13.7-19.42c5.31-25.61,21.72-75.43,74.51-130.78c-23.22,0-64.88,0-64.88,0V8c0,0,92.71,0,101.31,0C180.23,81.93,161.42,139.1,157.79,174z"></path>
<path d="M91.89,35.96c0-5.18,1.18-9.8,3.55-13.85c2.36-4.05,5.6-7.27,9.71-9.63s8.87-3.55,14.28-3.55s10.16,1.18,14.28,3.55c4.11,2.36,7.32,5.58,9.63,9.63s3.46,8.67,3.46,13.85c0,5.07-1.16,9.66-3.46,13.77c-2.31,4.11-5.52,7.35-9.63,9.72c-4.11,2.36-8.87,3.55-14.28,3.55c-5.41,0-10.17-1.18-14.28-3.55c-4.11-2.36-7.35-5.6-9.71-9.72C93.08,45.62,91.89,41.03,91.89,35.96z M119.43,52.18c5.07,0,8.84-1.69,11.32-5.07s3.72-7.1,3.72-11.15c0-4.06-1.24-7.77-3.72-11.15s-6.25-5.07-11.32-5.07c-5.18,0-9.01,1.69-11.49,5.07c-2.48,3.38-3.72,7.1-3.72,11.15s1.24,7.77,3.72,11.15C110.42,50.49,114.25,52.18,119.43,52.18z"></path>
<polygon points="0,113.45 0,0 67.12,80.81 67.12,8.92 83.18,8.92 83.18,123.81 15.3,43.24 15.3,113.71"></polygon>
</svg>
