<?xml version="1.0" encoding="utf-8"?>
<!-- Generator: Adobe Illustrator 25.4.1, SVG Export Plug-In . SVG Version: 6.00 Build 0)  -->
<svg version="1.1" id="Layer_1" xmlns="http://www.w3.org/2000/svg" xmlns:xlink="http://www.w3.org/1999/xlink" x="0px" y="0px"
	 viewBox="0 0 1080 1080" style="enable-background:new 0 0 1080 1080;" xml:space="preserve">
<style type="text/css">
	.st0{fill:#2D2C2A;}
	.st1{fill:#FFFFFF;}
	.st2{fill:#B6B4B2;}
	.st3{fill:#9BB9CB;}
	.st4{fill:#B9D3DF;}
	.st5{fill:#E5DCD7;}
	.st6{fill:#F6F2EF;}
</style>
<g>
	<g>
		<g>
			<path class="st0" d="M465.3,261c7.6,4.1,16,5.6,25.1,4c9.3-1.7,15.1-6.6,13.9-13c-0.8-4.4-4.7-6.6-11.6-6.4l-16.3,0.6
				c-8.9,0.3-14.4-2.6-15.7-9.9c-1.7-9.3,5.9-16,18.7-18.3c9-1.6,15.8-0.9,20.7,1.6l2.5,7.4c-6-3.7-13.1-5.2-21.8-3.6
				c-8.6,1.6-14.9,5.4-13.9,11.3c0.8,4.1,3.5,5.7,9.6,5.5l16.4-0.6c10.1-0.3,16.2,3.3,17.6,10.8c1.9,10.4-6.4,17.8-19,20.1
				c-9.3,1.7-18,0.5-23.6-2.1L465.3,261z"/>
		</g>
		<g>
			<path class="st0" d="M539.8,264.5l4.1-51.5l6.5,0.5l-1.9,23.7l32.1-21.3l9,0.7l-33.5,22l30.3,29.7l-9-0.7l-28.9-28.7l-2.1,26.3
				L539.8,264.5z"/>
		</g>
		<g>
			<path class="st0" d="M611.5,274.8l14.1-49.7l6.1,1.7l-14.1,49.7L611.5,274.8z"/>
		</g>
		<g>
			<path class="st0" d="M646.2,285.6l24.3-45.7l6.1,3.2l11.8,55.5l20.4-38.4l5.5,2.9L690,308.9l-5.7-3L672.2,250l-20.5,38.6
				L646.2,285.6z"/>
		</g>
		<g>
			<path class="st0" d="M767.3,341.7c-3.7-6.8-2.4-12.1,2.3-15.8c6.9-5.5,15.8-2.3,24.2,8.2c4.8,6.1,7.7,12.2,8.3,17.2l-4.6,4.8
				c-0.6-6.2-3.3-12.6-7.8-18.4c-5.5-6.9-11.6-10.5-16.4-6.7c-3.9,3.1-4.2,8.9,0.5,14.8l22.1,27.7l-4.1,3.3l-6.1-7.7l-19.1,15.3
				l-15.7-19.7c-8.6-10.8-8.9-20.1-1.6-25.9C754.7,334.4,762,335.5,767.3,341.7z M755.2,361.9l11.6,14.5l15.2-12.1l-12.3-15.5
				c-5.7-7.2-11.5-8.9-16.3-5.1C748.2,347.8,749.1,354.3,755.2,361.9z"/>
		</g>
		<g>
			<path class="st0" d="M856.1,456.1c2.1,7.7,1.9,13.8-0.4,18.6L848,478c3.7-5.8,4.8-12.4,2.7-19.8c-3.8-13.6-15.7-18.5-26.3-15.6
				c-10.6,3-18.2,13.4-14.5,26.9c2.1,7.6,6.6,13.2,12.8,16.3l-8.3,1.1c-4.3-3-8.1-8.9-10.3-16.5c-4.8-17.1,4.6-30.2,18.5-34.1
				C836.5,432.6,851.3,439,856.1,456.1z"/>
		</g>
		<g>
			<path class="st0" d="M840.4,513.7c14.1,0.2,26.8,10.1,26.5,27.6c-0.3,17.5-13.2,27-27.3,26.8s-26.8-10.1-26.5-27.6
				C813.4,523,826.3,513.5,840.4,513.7z M839.7,561.7c11.2,0.2,21.3-7.1,21.5-20.5c0.2-13.3-9.7-20.9-20.9-21s-21.3,7.1-21.5,20.4
				C818.6,554,828.5,561.6,839.7,561.7z"/>
		</g>
		<g>
			<path class="st0" d="M822.5,596c-7,5-12.1,12-14.6,20.8c-2.6,9.1-0.7,16.5,5.6,18.2c4.3,1.2,8-1.4,10.8-7.6l6.6-14.9
				c3.6-8.1,8.6-11.8,15.8-9.8c9.1,2.6,11.8,12.3,8.3,24.8c-2.5,8.8-6.2,14.6-10.6,17.9l-7.7-1c6-3.8,10.4-9.5,12.8-18.1
				c2.4-8.4,1.7-15.8-4.1-17.4c-4.1-1.1-6.7,0.7-9.2,6.2l-6.7,15c-4.1,9.2-10.1,13.2-17.4,11.1c-10.2-2.9-13.2-13.5-9.7-25.9
				c2.6-9.1,7.5-16.4,12.2-20.3L822.5,596z"/>
		</g>
		<g>
			<path class="st0" d="M804.2,732.2l-4.3,6.8l-43.8-27.6l3.3-5.2l37,23.4l-24.9-42.6l0.6-1l49.2,4.1l-37-23.4l3.3-5.2l43.8,27.6
				l-4.4,7l-46.2-3.8L804.2,732.2z"/>
		</g>
		<g>
			<path class="st0" d="M736,732.9l34.2,38.8l-31,27.3l-3.8-4.3l26.2-23.1l-10.9-12.4l-26.1,23l-3.8-4.3l26.1-23l-12-13.6
				l-26.6,23.4l-3.8-4.3L736,732.9z"/>
		</g>
		<g>
			<path class="st0" d="M667.1,783.4l21,41l17.9-9.2l2.6,5.1l-41.5,21.3l-2.6-5.1l17.9-9.2l-21-41L667.1,783.4z"/>
		</g>
		<g>
			<path class="st0" d="M618,803.4l14.2,49.7l-6.1,1.7l-14.2-49.7L618,803.4z"/>
		</g>
		<g>
			<path class="st0" d="M561.2,866.9c-8,0.6-13.9-0.8-18.2-4l-1.8-8.2c5,4.7,11.2,7,18.9,6.4c14.1-1.1,21.2-11.8,20.3-22.8
				c-0.9-11-9.6-20.4-23.6-19.3c-7.9,0.6-14.2,3.9-18.4,9.5l0.5-8.3c3.8-3.6,10.2-6.3,18.1-6.9c17.7-1.4,28.7,10.3,29.9,24.6
				C587.9,852.2,578.9,865.5,561.2,866.9z"/>
		</g>
		<g>
			<path class="st0" d="M509.7,827.2c-5.7-6.5-13-10.9-22-12.6c-9.3-1.7-16.4,0.8-17.6,7.2c-0.8,4.4,2.1,7.8,8.6,10.1l15.4,5.2
				c8.4,2.8,12.5,7.5,11.2,14.8c-1.7,9.3-11.1,12.9-23.9,10.6c-9-1.6-15.1-4.8-18.8-8.8l0.3-7.8c4.3,5.6,10.4,9.5,19.2,11.1
				c8.6,1.6,15.9,0.2,17-5.7c0.8-4.1-1.3-6.6-7-8.6l-15.6-5.2c-9.5-3.2-14-8.8-12.7-16.3c1.9-10.4,12.2-14.4,24.9-12.1
				c9.3,1.7,17,5.9,21.3,10.3L509.7,827.2z"/>
		</g>
	</g>
	<g>
		<g>
			<path class="st0" d="M373.9,760.8l-34.6,38.5L323,784.6c-13.7-12.3-14.6-26.8-4.1-38.5s25-12.3,38.7,0L373.9,760.8z M361.9,760.8
				l-9-8.1c-10.2-9.2-20.2-8.6-27.4-0.6c-7.2,8-6.7,18,3.5,27.2l9,8.1L361.9,760.8z"/>
		</g>
		<g>
			<path class="st0" d="M293.1,665l7,11l-4.2,35.8l19.2-12.2l4.8,7.5l-43.7,27.7l-16.1-25.3c-6.4-10-4.8-19.2,3.2-24.2
				c7.7-4.9,16.8-2.5,23,7.3l3.1,4.9L293.1,665z M267.3,706.2l10.7,16.9l14-8.9l-10.7-16.9c-3.5-5.5-8.5-7.6-12.9-4.8
				C264,695.3,263.7,700.6,267.3,706.2z"/>
		</g>
		<g>
			<path class="st0" d="M222.4,623.1l-1.8-10.2l19.7-19.1l-25.1-11.2l-1.8-10.1l34.3,15.4l20.4-3.7l1.6,8.7l-20.4,3.7L222.4,623.1z"
				/>
		</g>
		<g>
			<path class="st0" d="M263.4,552.9l-50.3-26.5l0.6-10.4l53-20.6l-0.6,10l-11.2,4l-1.6,28.5l10.7,5.3L263.4,552.9z M245.3,534
				l1.2-21.5l-25.8,9.3L245.3,534z"/>
		</g>
		<g>
			<path class="st0" d="M272.5,471.9l-49.2-16.1l2.8-8.4l41.6,13.6l9.3-28.5l7.6,2.5L272.5,471.9z"/>
		</g>
		<g>
			<path class="st0" d="M295.5,410.9l-43.4-28.2l11.9-18.4c10-15.4,24.2-18.6,37.4-10c13.1,8.5,16.1,22.8,6,38.2L295.5,410.9z
				 M293.7,399.1l6.6-10.2c7.4-11.5,5.4-21.3-3.7-27.2c-9.1-5.9-18.9-3.8-26.3,7.7l-6.6,10.2L293.7,399.1z"/>
		</g>
		<g>
			<path class="st0" d="M334.1,355.1L317,300.9l7.7-7l52.2,22.7l-7.4,6.7l-10.8-5l-21.2,19.1l3.9,11.3L334.1,355.1z M334.6,328.9
				l16-14.4L325.7,303L334.6,328.9z"/>
		</g>
	</g>
	<g>
		<path class="st0" d="M587.9,566c1.6,35.1-24.3,48.8-48.5,48.8c-4.4,0-8.8-0.4-13.2-1.4c-2.5-0.5-4.9-1.2-7.2-2.1
			c-7.8-2.8-14.8-7.4-20-14.2c-5.7-7.5-9.1-17.7-8.3-31c0.9-16.1,14.9-37.6,25.6-56.9c12.9-23.3,22.8-43.3,22.8-43.9
			c0-0.4,8.3,18.9,21.2,42.1C571.3,527.1,587.2,549.4,587.9,566z"/>
	</g>
	<g>
		<circle class="st0" cx="405.9" cy="271.6" r="8.6"/>
	</g>
	<g>
		<circle class="st0" cx="405.9" cy="810.5" r="8.6"/>
	</g>
	<g>
		<path class="st0" d="M540,945.2c-223.4,0-405.2-181.8-405.2-405.2S316.6,134.8,540,134.8S945.2,316.6,945.2,540
			S763.4,945.2,540,945.2z M540,143.6c-218.6,0-396.4,177.8-396.4,396.4S321.4,936.4,540,936.4c218.6,0,396.4-177.8,396.4-396.4
			S758.6,143.6,540,143.6z"/>
	</g>
</g>
</svg>
