<?xml version="1.0" encoding="utf-8"?>
<!-- Generator: Adobe Illustrator 25.4.1, SVG Export Plug-In . SVG Version: 6.00 Build 0)  -->
<svg version="1.1" id="Layer_1" xmlns="http://www.w3.org/2000/svg" xmlns:xlink="http://www.w3.org/1999/xlink" x="0px" y="0px"
	 viewBox="0 0 1080 1080" style="enable-background:new 0 0 1080 1080;" xml:space="preserve">
<style type="text/css">
	.st0{fill:#2D2C2A;}
	.st1{fill:#FFFFFF;}
	.st2{fill:#B6B4B2;}
	.st3{fill:#9BB9CB;}
	.st4{fill:#B9D3DF;}
	.st5{fill:#E5DCD7;}
	.st6{fill:#F6F2EF;}
</style>
<g>
	<g>
		<g>
			<path class="st1" d="M413.4,365.2H487l131,226.6l131-226.6h21.5L626.3,614.6v163.9h-52V614.6
				c-72.6-126.4-113.4-197.3-122.6-212.9C440.6,382.2,427.8,370,413.4,365.2z"/>
		</g>
	</g>
	<g>
		<path class="st1" d="M432.6,646.7c2.7,58.2-40.3,80.9-80.4,81c-7.3,0-14.7-0.7-21.9-2.3c-4.1-0.9-8.1-2-12-3.4
			c-12.9-4.7-24.6-12.3-33.1-23.5c-9.5-12.5-15-29.4-13.8-51.4c1.5-26.8,24.7-62.4,42.4-94.4c21.4-38.6,37.9-71.7,37.9-72.8
			c0-0.7,13.7,31.4,35.2,69.9C405,582.3,431.3,619.3,432.6,646.7z"/>
	</g>
</g>
</svg>
