<svg width="172" height="22" viewBox="0 0 172 22" fill="none" xmlns="http://www.w3.org/2000/svg">
<g clip-path="url(#clip0_1186_2813)">
<path d="M4.93146 0C5.01798 0 5.37641 7.54183e-07 6.0191 0.0123603C6.6618 0.0247199 7.26741 0.0247187 7.83595 0.0247187C9.3809 0.0247187 10.7899 0.210113 12.0506 0.593259C13.2989 0.976405 14.436 1.56966 15.4494 2.36067C16.4629 3.16405 17.2416 4.26404 17.7978 5.66067C18.3539 7.06966 18.6258 8.71348 18.6258 10.6045C18.6258 14.4978 17.6618 17.3652 15.7213 19.2067C13.7809 21.0607 11.173 21.9753 7.87303 21.9753H3.31236H0C0.617977 21.3326 0.926966 20.1955 0.926966 18.527V3.44832C0.926966 2.70674 0.85281 2.03933 0.704496 1.47079C0.556181 0.902248 0.395506 0.519102 0.222472 0.321349L0 0L3.31236 0.037079C3.60899 0.037079 3.85618 0.0370783 4.04157 0.0247187C4.23933 0.0123592 4.53596 0 4.93146 0ZM3.31236 0.580898V21.4315H7.87303C10.3202 21.4315 12.3101 20.4303 13.8303 18.4157C15.3629 16.4011 16.1292 13.8056 16.1292 10.6169C16.1292 7.53933 15.3753 5.09214 13.8551 3.28764C12.3348 1.48315 10.3449 0.580898 7.87303 0.580898H3.31236Z" fill="#F6F2EF"/>
<path d="M31.7748 0H33.913C34.7781 0 35.5939 0.0988768 36.3478 0.28427C37.1017 0.469663 37.8186 0.778652 38.4984 1.18652C39.1781 1.60674 39.7096 2.2 40.1051 2.99101C40.5006 3.78202 40.6984 4.69663 40.6984 5.75955C40.6984 6.93371 40.5006 7.93483 40.1051 8.78764C39.7096 9.64045 39.1781 10.2831 38.4984 10.7157C37.8186 11.1483 37.1017 11.4697 36.3478 11.6551C35.5939 11.8404 34.7781 11.9393 33.913 11.9393H32.6029C34.4321 12.236 35.9647 12.9034 37.1882 13.9539C38.1029 14.7202 38.8197 15.6596 39.3388 16.7966C39.8579 17.9213 40.2781 18.9719 40.5995 19.9483C40.9208 20.9247 41.2916 21.6045 41.7118 21.9876C41.65 21.9876 41.4399 21.9876 41.0939 21.9876C40.7478 21.9876 40.5253 21.9876 40.4264 21.9876C40.3276 21.9876 40.1298 21.9753 39.8332 21.9382C39.5366 21.9011 39.3388 21.864 39.2276 21.8146C39.1163 21.7652 38.9557 21.6786 38.7332 21.5798C38.5107 21.4685 38.3377 21.3449 38.2265 21.1843C38.1152 21.0236 37.9916 20.8258 37.8557 20.5787C37.7321 20.3315 37.6208 20.0596 37.5343 19.7629C37.5096 19.7011 37.4602 19.491 37.3613 19.1202C37.2624 18.7618 37.213 18.527 37.1882 18.4404C37.1635 18.3416 37.1141 18.1315 37.0152 17.7978C36.9163 17.464 36.8545 17.2416 36.8051 17.1303C36.768 17.0191 36.6939 16.8213 36.5826 16.5371C36.4714 16.2652 36.3849 16.0551 36.2984 15.9191C36.2118 15.7831 36.1006 15.5978 35.9647 15.3753C35.8287 15.1528 35.6927 14.9674 35.5691 14.8191C35.4456 14.6708 35.2972 14.5101 35.1242 14.3371C34.9512 14.164 34.7781 14.0034 34.5804 13.8551C33.6905 13.1753 32.6647 12.6933 31.5152 12.4213C30.3658 12.1494 28.9691 12.0011 27.3006 11.9764V21.9876H24.8781V3.44832C24.8781 2.70674 24.804 2.03933 24.6557 1.47079C24.5073 0.902248 24.3467 0.519102 24.1736 0.321349L23.9512 0H27.3006H31.7748ZM27.313 0.580898V11.3831H33.913C35.2354 11.3831 36.2984 10.8517 37.1017 9.80112C37.9051 8.75056 38.313 7.40337 38.313 5.77191C38.313 4.17753 37.9175 2.91685 37.1141 1.97753C36.3107 1.0382 35.2478 0.56854 33.913 0.56854H27.313V0.580898Z" fill="#F6F2EF"/>
<path d="M64.5527 0.0371094H68.2235L75.3921 12.4708L82.5606 0.0371094H83.228L75.6516 13.2V22H73.2291V13.2C73.1921 13.1135 72.7718 12.3967 72.0055 11.0495C71.2269 9.70228 70.2999 8.09554 69.237 6.22924C68.1617 4.37531 67.2965 2.86745 66.6415 1.71801C66.1348 0.914638 65.4426 0.358458 64.5527 0.0371094Z" fill="#F6F2EF"/>
<path d="M89.7939 0H93.3658L102.809 22H100.164C98.8905 19.0213 97.9141 16.7348 97.2344 15.1405H86.5804L83.6759 22H83.0703L91.5242 1.95281C91.1164 1.24831 90.5478 0.605618 89.7939 0ZM91.8703 2.62022L86.8276 14.5719H96.9624C96.3445 13.1506 95.4917 11.136 94.3917 8.54045C93.3164 5.9573 92.4636 3.97977 91.8703 2.62022Z" fill="#F6F2EF"/>
<path d="M111.125 0V21.4315H119.579C120.53 21.4315 121.507 21.1719 122.483 20.6652C123.46 20.1584 124.115 19.6764 124.461 19.2315L124.238 22H109.283H108.739V3.44832C108.739 2.79326 108.665 2.22472 108.517 1.7427C108.369 1.26067 108.208 0.964045 108.035 0.84045L107.812 0.617977L111.125 0Z" fill="#F6F2EF"/>
<path d="M134.422 0C134.509 0 134.867 7.54183e-07 135.51 0.0123603C136.153 0.0247199 136.758 0.0247187 137.327 0.0247187C138.872 0.0247187 140.281 0.210113 141.541 0.593259C142.79 0.976405 143.927 1.56966 144.94 2.36067C145.954 3.16405 146.732 4.26404 147.289 5.66067C147.845 7.06966 148.117 8.71348 148.117 10.6045C148.117 14.4978 147.153 17.3652 145.212 19.2067C143.272 21.0607 140.664 21.9753 137.364 21.9753H132.803H129.479C130.096 21.3326 130.405 20.1955 130.405 18.527V3.44832C130.405 2.70674 130.331 2.03933 130.183 1.47079C130.035 0.902248 129.874 0.519102 129.701 0.321349L129.479 0L132.791 0.037079C133.088 0.037079 133.335 0.0370783 133.52 0.0247187C133.718 0.0123592 134.014 0 134.422 0ZM132.791 0.580898V21.4315H137.352C139.799 21.4315 141.789 20.4303 143.309 18.4157C144.841 16.4011 145.608 13.8056 145.608 10.6169C145.608 7.53933 144.854 5.09214 143.334 3.28764C141.813 1.48315 139.823 0.580898 137.352 0.580898H132.791Z" fill="#F6F2EF"/>
<path d="M158.548 0H162.12L171.563 22H168.906C167.633 19.0213 166.656 16.7348 165.977 15.1405H155.323L152.418 22H151.812L160.266 1.94045C159.871 1.24831 159.29 0.605618 158.548 0ZM160.625 2.62022L155.582 14.5719H165.717C165.099 13.1506 164.246 11.136 163.146 8.54045C162.059 5.9573 161.218 3.97977 160.625 2.62022Z" fill="#F6F2EF"/>
<path d="M58.6589 13.8065C58.7454 15.6852 57.3611 16.4144 56.0634 16.4144C55.8285 16.4144 55.5937 16.3897 55.3589 16.3402C55.2229 16.3155 55.0993 16.2784 54.9757 16.229C54.5555 16.0807 54.1847 15.8335 53.9128 15.4751C53.6038 15.0672 53.4308 14.5234 53.4679 13.8189C53.5173 12.9537 54.2589 11.8043 54.8398 10.7784C55.5319 9.53012 56.0634 8.4672 56.0634 8.43012C56.0634 8.4054 56.5083 9.4436 57.2004 10.6796C57.769 11.7301 58.6094 12.929 58.6589 13.8065Z" fill="#F6F2EF"/>
</g>
<defs>
<clipPath id="clip0_1186_2813">
<rect width="172" height="22" fill="white"/>
</clipPath>
</defs>
</svg>
