<svg width="34" height="28" viewBox="0 0 34 28" fill="none" xmlns="http://www.w3.org/2000/svg">
<path d="M9.47656 0H14.3832L23.1166 15.1067L31.8499 0H33.2832L23.6699 16.6267V27.5533H20.2032V16.6267C15.3632 8.2 12.6432 3.47333 12.0299 2.43333C11.2899 1.13333 10.4366 0.32 9.47656 0Z" fill="#2D2C2A"/>
<path d="M10.7575 18.7667C10.9375 22.6467 8.07088 24.1601 5.39755 24.1667C4.91088 24.1667 4.41755 24.1201 3.93755 24.0134C3.66421 23.9534 3.39755 23.8801 3.13755 23.7867C2.27755 23.4734 1.49755 22.9667 0.93088 22.2201C0.297547 21.3867 -0.0691209 20.2601 0.0108791 18.7934C0.110879 17.0067 1.65755 14.6334 2.83755 12.5001C4.26421 9.92675 5.36421 7.72008 5.36421 7.64675C5.36421 7.60008 6.27755 9.74008 7.71088 12.3067C8.91755 14.4734 10.6709 16.9401 10.7575 18.7667Z" fill="#2D2C2A"/>
</svg>
